<svg width="46" height="50" viewBox="0 0 46 50" fill="none" xmlns="http://www.w3.org/2000/svg">
<path d="M22.9719 50L4.18634 45.0018L0 0H46L41.8093 44.9948L22.9719 50Z" fill="#264DE4"/>
<path d="M38.2219 42.1297L41.8032 3.67955H23.0004V46.1743L38.2219 42.1297Z" fill="#2965F1"/>
<path d="M9.5968 20.3701L10.1129 25.8894H22.9998V20.3701H9.5968Z" fill="#EBEBEB"/>
<path d="M8.56001 9.19912L9.08352 14.7184H23.0002V9.19912H8.56001Z" fill="#EBEBEB"/>
<path d="M23.0001 34.7043L22.9749 34.7107L16.5614 33.051L16.1513 28.649H10.3705L11.1773 37.3152L22.9736 40.4537L23.0001 40.4466V34.7043Z" fill="#EBEBEB"/>
<path d="M36.3662 20.3703L37.4058 9.19912H22.9801V14.7184H31.0948L30.5708 20.3703H22.9801V25.8895H30.0714L29.4029 33.0476L22.9801 34.7091V40.4512L34.7858 37.3153L36.2257 21.8524L36.3662 20.3703Z" fill="white"/>
</svg>
