<svg width="16" height="16" viewBox="0 0 16 16" fill="none" xmlns="http://www.w3.org/2000/svg">
<rect width="16" height="16" rx="5" fill="white"/>
<path d="M7.26926 8.00555V12.6081C7.39327 12.6254 7.51269 12.6389 7.62752 12.6488C7.74235 12.6562 7.85488 12.6599 7.96511 12.6599C8.35323 12.6599 8.70115 12.6069 9.00889 12.5009C9.31663 12.3925 9.57729 12.2298 9.79087 12.0129C10.0044 11.7936 10.1675 11.5213 10.28 11.1959C10.3949 10.8681 10.4523 10.4837 10.4523 10.0425C10.45 9.75169 10.4155 9.49415 10.3489 9.26987C10.2823 9.04559 10.1893 8.85089 10.0699 8.68577C9.95048 8.51818 9.80924 8.37893 9.64618 8.26802C9.48543 8.15465 9.30974 8.06346 9.11913 7.99445C8.93081 7.92298 8.73101 7.87246 8.51973 7.84288C8.31074 7.81331 8.09831 7.79852 7.88244 7.79852C7.77909 7.79852 7.67575 7.80222 7.5724 7.80961C7.46906 7.81701 7.36342 7.82686 7.25548 7.83919C7.26007 7.87369 7.26352 7.90573 7.26581 7.93531C7.26811 7.96242 7.26926 7.98583 7.26926 8.00555ZM6.11869 7.71719C6.31849 7.69008 6.49762 7.66667 6.65608 7.64695C6.81454 7.62477 6.96841 7.60628 7.11768 7.5915C7.26696 7.57671 7.42083 7.56562 7.57929 7.55823C7.73775 7.55083 7.91688 7.54713 8.11668 7.54713C8.28892 7.54713 8.44624 7.55206 8.58862 7.56192C8.73101 7.57178 8.86536 7.58903 8.99167 7.61368C9.12027 7.63586 9.24544 7.66667 9.36715 7.7061C9.49117 7.74307 9.62092 7.78866 9.75642 7.84288C9.93785 7.91682 10.1043 8.01664 10.2559 8.14233C10.4098 8.26556 10.5418 8.41713 10.6521 8.59704C10.7623 8.77696 10.8473 8.98644 10.907 9.22551C10.969 9.46457 11 9.73691 11 10.0425C10.9977 10.4048 10.9541 10.7277 10.8691 11.0111C10.7841 11.2945 10.6659 11.5434 10.5143 11.7579C10.3627 11.9723 10.1824 12.1547 9.97344 12.305C9.76675 12.4553 9.54169 12.5773 9.29826 12.671C9.05482 12.7646 8.79761 12.8324 8.52662 12.8743C8.25562 12.9162 7.98119 12.9372 7.7033 12.9372C7.68034 12.9372 7.60455 12.9372 7.47595 12.9372C7.34964 12.9396 7.21414 12.947 7.06946 12.9593C6.92477 12.9717 6.79846 12.9852 6.69053 13L6.66986 12.963C6.71579 12.8916 6.73875 12.7609 6.73875 12.5712V8.67837C6.73875 8.51571 6.73186 8.38016 6.71808 8.27172C6.70431 8.16081 6.67904 8.07209 6.6423 8.00555C6.60555 7.939 6.55388 7.89218 6.48728 7.86506C6.42068 7.83549 6.35753 7.8207 6.29782 7.8207C6.23811 7.8207 6.20021 7.8207 6.18414 7.8207C6.16806 7.8207 6.15084 7.82193 6.13246 7.8244L6.11869 7.71719Z" fill="black"/>
<path d="M5 10.0943V10.0186L5.49385 9.92013V5.42286C5.49385 5.30677 5.44917 5.1932 5.3598 5.08216C5.27044 4.96607 5.15051 4.87521 5 4.8096V4.73389H6.10058L9.27533 9.06459H9.36704V6.64939C9.36704 6.47273 9.35293 6.30364 9.32471 6.14212C9.29649 5.9806 9.24946 5.8317 9.18361 5.69542C9.12247 5.55409 9.04487 5.42538 8.9508 5.30929C8.85673 5.1932 8.74385 5.09478 8.61216 5.01402C8.48517 4.92821 8.33937 4.86007 8.17475 4.8096V4.73389H10.009V4.8096L9.47287 4.90802V10.0943H9.03546L5.69139 5.55157H5.59967V7.83806C5.59967 8.05006 5.61378 8.24943 5.642 8.43619C5.67493 8.61789 5.72431 8.78951 5.79016 8.95102C5.85601 9.10749 5.94067 9.25387 6.04414 9.39015C6.14761 9.52139 6.27225 9.64 6.41805 9.746C6.56386 9.85199 6.73553 9.94285 6.93307 10.0186V10.0943H5Z" fill="black"/>
<path d="M8.518 3.63771V8.88355C8.518 9.16451 8.49045 9.43253 8.43533 9.68762C8.38021 9.939 8.31476 10.1479 8.23897 10.3142C8.16319 10.4769 8.07879 10.6266 7.98578 10.7634C7.89277 10.9002 7.81526 10.9982 7.75325 11.0573C7.69469 11.1201 7.64646 11.1645 7.60857 11.1904C7.51212 11.2421 7.34677 11.268 7.11252 11.268C6.66125 11.268 6.23064 11.146 5.82071 10.902C5.94817 10.6506 6.16347 10.4122 6.46661 10.1867L6.53895 10.2477C6.76631 10.647 7.03501 10.8466 7.34504 10.8466C7.40705 10.8466 7.46044 10.8299 7.50523 10.7967C7.55001 10.7597 7.5879 10.6932 7.61891 10.597C7.65335 10.4972 7.67919 10.3789 7.69641 10.2421C7.71708 10.1017 7.73431 9.91312 7.74809 9.67653C7.76187 9.43623 7.77048 9.17375 7.77392 8.88909C7.77737 8.60074 7.77909 8.24584 7.77909 7.8244V4.65804C7.77909 4.17006 7.72914 3.83549 7.62924 3.65434C7.52934 3.4695 7.32437 3.37708 7.01434 3.37708H6.86449L6.84382 3.27172C7.41222 3.09057 7.93411 3 8.40949 3C8.48183 3.19593 8.518 3.4085 8.518 3.63771Z" fill="black"/>
</svg>
