<svg width="70" height="70" viewBox="0 0 70 70" fill="none" xmlns="http://www.w3.org/2000/svg">
<g clip-path="url(#clip0_40_65)">
<path d="M0.729187 0.729187H69.2708V69.2708H0.729187V0.729187Z" fill="#F7DF1E"/>
<path d="M18.7516 58.0075L23.9969 54.8332C25.0088 56.6274 25.9293 58.1454 28.1373 58.1454C30.2539 58.1454 31.5882 57.3175 31.5882 54.0971V32.1964H38.0294V54.1882C38.0294 60.8595 34.1189 63.8961 28.4134 63.8961C23.2608 63.8961 20.2699 61.228 18.7516 58.0075Z" fill="black"/>
<path d="M41.5276 57.3174L46.7723 54.2808C48.1529 56.5354 49.9473 58.1917 53.1217 58.1917C55.7906 58.1917 57.4925 56.8573 57.4925 55.0169C57.4925 52.8084 55.7442 52.0262 52.7996 50.7383L51.1897 50.0477C46.5425 48.0697 43.4597 45.5852 43.4597 40.3401C43.4597 35.509 47.1404 31.8281 52.8918 31.8281C56.9867 31.8281 59.9312 33.2546 62.0475 36.9814L57.0324 40.2019C55.9281 38.2236 54.7322 37.4416 52.8919 37.4416C51.0055 37.4416 49.8092 38.6378 49.8092 40.2019C49.8092 42.1343 51.0055 42.9166 53.7658 44.113L55.376 44.8031C60.8512 47.1497 63.9339 49.5419 63.9339 54.9248C63.9339 60.7224 59.379 63.8967 53.2599 63.8967C47.2787 63.8967 43.4137 61.0443 41.5276 57.3174Z" fill="black"/>
</g>
<defs>
<clipPath id="clip0_40_65">
<rect width="70" height="70" fill="white"/>
</clipPath>
</defs>
</svg>
