<svg width="70" height="70" viewBox="0 0 70 70" fill="none" xmlns="http://www.w3.org/2000/svg">
<g clip-path="url(#clip0_39_26)">
<g clip-path="url(#clip1_39_26)">
<path d="M34.7529 0.907532C17.3528 0.907532 18.4394 8.45329 18.4394 8.45329L18.4588 16.2706H35.0633V18.6177H11.8636C11.8636 18.6177 0.729187 17.355 0.729187 34.9119C0.729186 52.4688 10.4475 51.8461 10.4475 51.8461H16.2475V43.6991C16.2475 43.6991 15.9348 33.9808 25.8106 33.9808H42.2793C42.2793 33.9808 51.532 34.1304 51.532 25.0384V10.0051C51.532 10.0051 52.9369 0.907532 34.7529 0.907532ZM25.5972 6.16434C27.2492 6.16434 28.5844 7.49954 28.5844 9.15161C28.5844 10.8036 27.2492 12.1389 25.5972 12.1389C23.9451 12.1389 22.6099 10.8036 22.6099 9.15161C22.6099 7.49954 23.9451 6.16434 25.5972 6.16434Z" fill="url(#paint0_linear_39_26)"/>
<path d="M35.2474 69.0926C52.6476 69.0926 51.561 61.5468 51.561 61.5468L51.5416 53.7295H34.9371V51.3824H58.1368C58.1368 51.3824 69.2712 52.6451 69.2712 35.0882C69.2712 17.5314 59.5529 18.1539 59.5529 18.1539H53.7529V26.301C53.7529 26.301 54.0656 36.0193 44.1898 36.0193H27.7211C27.7211 36.0193 18.4683 35.8697 18.4683 44.9617V59.995C18.4683 59.995 17.0635 69.0926 35.2474 69.0926ZM44.4032 63.8358C42.7511 63.8358 41.4159 62.5005 41.4159 60.8485C41.4159 59.1964 42.7511 57.8613 44.4032 57.8613C46.0552 57.8613 47.3904 59.1964 47.3904 60.8485C47.3904 62.5005 46.0552 63.8358 44.4032 63.8358Z" fill="url(#paint1_linear_39_26)"/>
</g>
</g>
<defs>
<linearGradient id="paint0_linear_39_26" x1="659.428" y1="614.211" x2="4056.11" y2="3977" gradientUnits="userSpaceOnUse">
<stop stop-color="#387EB8"/>
<stop offset="1" stop-color="#366994"/>
</linearGradient>
<linearGradient id="paint1_linear_39_26" x1="990.66" y1="1066.49" x2="4638.32" y2="4514.73" gradientUnits="userSpaceOnUse">
<stop stop-color="#FFE052"/>
<stop offset="1" stop-color="#FFC331"/>
</linearGradient>
<clipPath id="clip0_39_26">
<rect width="70" height="70" fill="white"/>
</clipPath>
<clipPath id="clip1_39_26">
<rect width="70" height="70" fill="white"/>
</clipPath>
</defs>
</svg>
