<svg width="50" height="50" viewBox="0 0 50 50" fill="none" xmlns="http://www.w3.org/2000/svg">
<path d="M40.7744 17.3389C40.2665 17.1641 39.7402 16.9987 39.1984 16.8423C39.2874 16.4788 39.3691 16.12 39.4419 15.7674C40.6349 9.97632 39.8548 5.31096 37.1912 3.77496C34.6372 2.30212 30.4602 3.83779 26.2417 7.50903C25.8361 7.86205 25.4292 8.23585 25.0226 8.62757C24.7517 8.36841 24.4812 8.11794 24.2114 7.87835C19.7903 3.95282 15.3588 2.29855 12.6978 3.83901C10.1462 5.31612 9.39055 9.70195 10.4644 15.1902C10.5681 15.7203 10.6894 16.2616 10.8264 16.8121C10.1993 16.9901 9.59378 17.1799 9.01441 17.3818C3.83111 19.1889 0.520813 22.0212 0.520813 24.9589C0.520813 27.993 4.07442 31.0363 9.47326 32.8816C9.8993 33.0273 10.3414 33.1649 10.797 33.2956C10.6491 33.891 10.5204 34.4743 10.4125 35.0432C9.38852 40.4362 10.1882 44.7185 12.733 46.1863C15.3615 47.702 19.773 46.144 24.0687 42.3891C24.4082 42.0923 24.7489 41.7775 25.0902 41.4476C25.5327 41.8736 25.9745 42.2768 26.4138 42.655C30.5747 46.2356 34.6841 47.6814 37.2266 46.2095C39.8526 44.6893 40.706 40.0892 39.598 34.4924C39.5134 34.065 39.4149 33.6283 39.3044 33.1838C39.6141 33.0923 39.9183 32.9977 40.2148 32.8994C45.8274 31.0398 49.4791 28.0336 49.4791 24.9589C49.4791 22.0105 46.0621 19.1592 40.7744 17.3389ZM39.5571 30.9141C39.2894 31.0028 39.0147 31.0885 38.7348 31.1715C38.1151 29.2099 37.2789 27.1241 36.2556 24.9691C37.2321 22.8654 38.036 20.8063 38.6383 18.8574C39.1391 19.0024 39.6252 19.1552 40.0936 19.3165C44.6241 20.8762 47.3877 23.1821 47.3877 24.9589C47.3877 26.8515 44.4031 29.3084 39.5571 30.9141ZM37.5463 34.8986C38.0362 37.3735 38.1062 39.611 37.7816 41.3602C37.4901 42.9319 36.9037 43.9798 36.1786 44.3995C34.6357 45.2926 31.3362 44.1317 27.7778 41.0696C27.3699 40.7186 26.959 40.3438 26.5468 39.9471C27.9263 38.4384 29.305 36.6844 30.6507 34.7364C33.0174 34.5264 35.2535 34.183 37.2813 33.7143C37.3811 34.1172 37.4698 34.5123 37.5463 34.8986ZM17.2118 44.2452C15.7044 44.7776 14.5038 44.7928 13.7781 44.3743C12.2337 43.4836 11.5917 40.0454 12.4675 35.4333C12.5677 34.9051 12.6872 34.3626 12.8248 33.808C14.8303 34.2515 17.05 34.5706 19.4224 34.7629C20.7771 36.669 22.1957 38.4211 23.6252 39.9552C23.3128 40.2567 23.0018 40.5438 22.6924 40.8143C20.7929 42.4747 18.8894 43.6527 17.2118 44.2452ZM10.1497 30.9026C7.76243 30.0866 5.79092 29.0262 4.43956 27.8689C3.22528 26.829 2.61221 25.7966 2.61221 24.9589C2.61221 23.1762 5.27003 20.9023 9.70284 19.3568C10.2407 19.1692 10.8038 18.9925 11.3881 18.8265C12.0007 20.8193 12.8044 22.9029 13.7742 25.0098C12.7918 27.148 11.9768 29.2648 11.3581 31.281C10.9415 31.1612 10.538 31.0352 10.1497 30.9026ZM12.517 14.7886C11.5969 10.0864 12.2079 6.53919 13.7456 5.64908C15.3835 4.70088 19.0053 6.05283 22.8226 9.44236C23.0666 9.65898 23.3116 9.88575 23.5573 10.1203C22.1348 11.6477 20.7293 13.3866 19.3866 15.2815C17.084 15.4949 14.88 15.8378 12.8535 16.2968C12.7261 15.7843 12.6133 15.2808 12.517 14.7886ZM33.6353 20.0032C33.1509 19.1665 32.6536 18.3494 32.1466 17.5548C33.7087 17.7523 35.2053 18.0144 36.6108 18.3352C36.1888 19.6875 35.6629 21.1014 35.0438 22.5509C34.5997 21.7078 34.13 20.8577 33.6353 20.0032ZM25.0233 11.6151C25.9881 12.6602 26.9541 13.8271 27.9044 15.0931C26.9468 15.0479 25.9774 15.0243 25 15.0243C24.0318 15.0243 23.0696 15.0474 22.1179 15.0918C23.0691 13.8375 24.0436 12.6722 25.0233 11.6151ZM16.3561 20.0177C15.8722 20.8568 15.4112 21.7023 14.9741 22.5493C14.365 21.1049 13.844 19.6846 13.4184 18.313C14.8152 18.0004 16.3048 17.7449 17.857 17.5511C17.3428 18.3531 16.8414 19.1763 16.3561 20.0177ZM17.9016 32.5159C16.298 32.3369 14.786 32.0946 13.3896 31.7905C13.822 30.3946 14.3545 28.9439 14.9764 27.4684C15.4147 28.3148 15.8775 29.1606 16.3644 30.0016C16.8603 30.8583 17.3743 31.6975 17.9016 32.5159ZM25.0812 38.4502C24.0899 37.3806 23.1012 36.1976 22.1355 34.925C23.0729 34.9618 24.0287 34.9806 25 34.9806C25.9979 34.9806 26.9844 34.9581 27.9553 34.9149C27.002 36.2104 26.0394 37.3953 25.0812 38.4502ZM35.0638 27.3931C35.7182 28.8846 36.2698 30.3277 36.7077 31.6999C35.2883 32.0238 33.7556 32.2846 32.1408 32.4784C32.649 31.673 33.1508 30.842 33.6437 29.9872C34.1425 29.1224 34.616 28.2562 35.0638 27.3931ZM31.8321 28.9423C31.0667 30.2693 30.2811 31.536 29.4834 32.7317C28.0306 32.8356 26.5297 32.8891 25 32.8891C23.4764 32.8891 21.9944 32.8418 20.5673 32.7492C19.7375 31.5378 18.9348 30.2673 18.1744 28.9537C17.4159 27.6438 16.7181 26.3227 16.0856 25.0091C16.7179 23.6924 17.4141 22.3699 18.1682 21.0623C18.9242 19.7512 19.7198 18.4872 20.5419 17.2834C21.9979 17.1732 23.491 17.1159 24.9999 17.1159C26.5156 17.1159 28.0107 17.1737 29.4663 17.2847C30.2758 18.4798 31.0662 19.74 31.8252 21.0512C32.5928 22.3772 33.2981 23.691 33.9358 24.9794C33.2999 26.29 32.5963 27.6169 31.8321 28.9423ZM36.1465 5.5869C37.786 6.53231 38.4236 10.3453 37.3935 15.3452C37.3278 15.6642 37.2538 15.9892 37.1735 16.3186C35.1423 15.8499 32.9366 15.5011 30.6274 15.2845C29.2821 13.3688 27.8881 11.6272 26.4888 10.1194C26.865 9.75747 27.2407 9.41237 27.6148 9.08674C31.2292 5.94122 34.6074 4.69931 36.1465 5.5869ZM25 20.5871C27.4144 20.5871 29.3718 22.5444 29.3718 24.9589C29.3718 27.3734 27.4144 29.3307 25 29.3307C22.5856 29.3307 20.6282 27.3734 20.6282 24.9589C20.6282 22.5444 22.5856 20.5871 25 20.5871Z" fill="#00D8FF"/>
</svg>
