<svg width="50" height="50" viewBox="0 0 50 50" fill="none" xmlns="http://www.w3.org/2000/svg">
<path d="M25 10.3124C18.4722 10.3124 14.3923 13.5763 12.7604 20.104C15.2083 16.8401 18.0642 15.6162 21.3281 16.4322C23.1903 16.8977 24.5214 18.2487 25.9947 19.7442C28.3947 22.1803 31.1724 24.9999 37.2396 24.9999C43.7673 24.9999 47.8472 21.736 49.4792 15.2082C47.0312 18.4721 44.1753 19.6961 40.9114 18.8801C39.0492 18.4145 37.7182 17.0636 36.2449 15.5681C33.8448 13.1319 31.0671 10.3124 25 10.3124ZM12.7604 24.9999C6.23264 24.9999 2.15276 28.2638 0.520813 34.7915C2.96873 31.5276 5.82462 30.3037 9.08852 31.1197C10.9508 31.5852 12.2818 32.9362 13.7551 34.4317C16.1551 36.8678 18.9328 39.6874 25 39.6874C31.5277 39.6874 35.6076 36.4235 37.2396 29.8957C34.7916 33.1596 31.9358 34.3836 28.6719 33.5676C26.8096 33.102 25.4786 31.7511 24.0053 30.2556C21.6052 27.8194 18.8275 24.9999 12.7604 24.9999Z" fill="url(#paint0_linear_41_119)"/>
<defs>
<linearGradient id="paint0_linear_41_119" x1="-135.475" y1="950.313" x2="4092.88" y2="3388.28" gradientUnits="userSpaceOnUse">
<stop stop-color="#2298BD"/>
<stop offset="1" stop-color="#0ED7B5"/>
</linearGradient>
</defs>
</svg>
