<svg width="54" height="85" viewBox="0 0 54 85" fill="none" xmlns="http://www.w3.org/2000/svg">
<path d="M31.8282 5.42188V49.7656C31.8282 52.1406 31.5782 54.4062 31.0782 56.5625C30.5782 58.6875 29.9844 60.4531 29.2969 61.8594C28.6094 63.2344 27.8438 64.5 27.0001 65.6562C26.1563 66.8125 25.4532 67.6406 24.8907 68.1406C24.3594 68.6719 23.9219 69.0469 23.5782 69.2656C22.7032 69.7031 21.2032 69.9219 19.0782 69.9219C14.9844 69.9219 11.0782 68.8906 7.35943 66.8281C8.51568 64.7031 10.4688 62.6875 13.2188 60.7812L13.8751 61.2969C15.9376 64.6719 18.3751 66.3594 21.1876 66.3594C21.7501 66.3594 22.2344 66.2188 22.6407 65.9375C23.0469 65.625 23.3907 65.0625 23.6719 64.25C23.9844 63.4062 24.2188 62.4062 24.3751 61.25C24.5626 60.0625 24.7188 58.4688 24.8438 56.4688C24.9688 54.4375 25.0469 52.2188 25.0782 49.8125C25.1094 47.375 25.1251 44.375 25.1251 40.8125V14.0469C25.1251 9.92188 24.6719 7.09375 23.7657 5.5625C22.8594 4 21.0001 3.21875 18.1876 3.21875H16.8282L16.6407 2.32812C21.7969 0.796875 26.5313 0.03125 30.8438 0.03125C31.5001 1.6875 31.8282 3.48438 31.8282 5.42188Z" fill="black"/>
<path d="M0.289307 60V59.36L4.76931 58.528V20.512C4.76931 19.5307 4.36397 18.5707 3.55331 17.632C2.74264 16.6507 1.65464 15.8827 0.289307 15.328V14.688H10.2733L39.0733 51.296H39.9053V30.88C39.9053 29.3867 39.7773 27.9573 39.5213 26.592C39.2653 25.2267 38.8386 23.968 38.2413 22.816C37.6866 21.6213 36.9826 20.5333 36.1293 19.552C35.276 18.5707 34.252 17.7387 33.0573 17.056C31.9053 16.3307 30.5826 15.7547 29.0893 15.328V14.688H45.7293V15.328L40.8653 16.16V60H36.8973L6.56131 21.6H5.72931V40.928C5.72931 42.72 5.85731 44.4053 6.11331 45.984C6.41197 47.52 6.85997 48.9707 7.45731 50.336C8.05464 51.6587 8.82264 52.896 9.76131 54.048C10.7 55.1573 11.8306 56.16 13.1533 57.056C14.476 57.952 16.0333 58.72 17.8253 59.36V60H0.289307Z" fill="black"/>
<path d="M19.6251 42.3438V81.25C20.7501 81.3958 21.8334 81.5104 22.8751 81.5938C23.9167 81.6562 24.9376 81.6875 25.9376 81.6875C29.4584 81.6875 32.6146 81.2396 35.4063 80.3438C38.198 79.4271 40.5626 78.0521 42.5001 76.2188C44.4376 74.3646 45.9167 72.0625 46.9376 69.3125C47.9792 66.5417 48.5001 63.2917 48.5001 59.5625C48.4792 57.1042 48.1667 54.9271 47.5626 53.0312C46.9584 51.1354 46.1146 49.4896 45.0313 48.0938C43.948 46.6771 42.6667 45.5 41.1876 44.5625C39.7292 43.6042 38.1355 42.8333 36.4063 42.25C34.698 41.6458 32.8855 41.2188 30.9688 40.9688C29.073 40.7188 27.1459 40.5938 25.1876 40.5938C24.2501 40.5938 23.3126 40.625 22.3751 40.6875C21.4376 40.75 20.4792 40.8333 19.5001 40.9375C19.5417 41.2292 19.573 41.5 19.5938 41.75C19.6146 41.9792 19.6251 42.1771 19.6251 42.3438ZM9.18756 39.9062C11.0001 39.6771 12.6251 39.4792 14.0626 39.3125C15.5001 39.125 16.8959 38.9688 18.2501 38.8438C19.6042 38.7188 21.0001 38.625 22.4376 38.5625C23.8751 38.5 25.5001 38.4688 27.3126 38.4688C28.8751 38.4688 30.3021 38.5104 31.5938 38.5938C32.8855 38.6771 34.1042 38.8229 35.2501 39.0312C36.4167 39.2188 37.5521 39.4792 38.6563 39.8125C39.7813 40.125 40.9584 40.5104 42.1876 40.9688C43.8334 41.5938 45.3438 42.4375 46.7188 43.5C48.1146 44.5417 49.3126 45.8229 50.3126 47.3438C51.3126 48.8646 52.0834 50.6354 52.6251 52.6562C53.1876 54.6771 53.4688 56.9792 53.4688 59.5625C53.448 62.625 53.0521 65.3542 52.2813 67.75C51.5105 70.1458 50.4376 72.25 49.0626 74.0625C47.6876 75.875 46.0521 77.4167 44.1563 78.6875C42.2813 79.9583 40.2396 80.9896 38.0313 81.7812C35.823 82.5729 33.4896 83.1458 31.0313 83.5C28.573 83.8542 26.0834 84.0312 23.5626 84.0312C23.3542 84.0312 22.6667 84.0312 21.5001 84.0312C20.3542 84.0521 19.1251 84.1146 17.8126 84.2188C16.5001 84.3229 15.3542 84.4375 14.3751 84.5625L14.1876 84.25C14.6042 83.6458 14.8126 82.5417 14.8126 80.9375V48.0312C14.8126 46.6562 14.7501 45.5104 14.6251 44.5938C14.5001 43.6562 14.2709 42.9062 13.9376 42.3438C13.6042 41.7812 13.1355 41.3854 12.5313 41.1562C11.9271 40.9062 11.3542 40.7812 10.8126 40.7812C10.2709 40.7812 9.92714 40.7812 9.78131 40.7812C9.63547 40.7812 9.47922 40.7917 9.31256 40.8125L9.18756 39.9062Z" fill="black"/>
</svg>
