<svg width="128" height="128" viewBox="0 0 128 128" fill="none" xmlns="http://www.w3.org/2000/svg">
<path d="M91.625 65.9687C91.1334 71.2881 89.1371 76.3575 85.8695 80.5837C82.602 84.8099 78.1984 88.0181 73.1741 89.8329C68.1497 91.6478 62.7125 91.9941 57.4984 90.8315C52.2844 89.6689 47.5094 87.0454 43.732 83.268C39.9546 79.4906 37.3311 74.7156 36.1685 69.5016C35.0059 64.2875 35.3522 58.8503 37.1671 53.8259C38.9819 48.8016 42.1901 44.398 46.4163 41.1305C50.6425 37.8629 55.7119 35.8666 61.0313 35.375C57.9169 39.5883 56.4183 44.7795 56.8079 50.0044C57.1975 55.2293 59.4496 60.1408 63.1544 63.8456C66.8592 67.5504 71.7707 69.8025 76.9956 70.1921C82.2205 70.5817 87.4117 69.0831 91.625 65.9687Z" stroke="#131313" stroke-width="4" stroke-linecap="round" stroke-linejoin="round"/>
</svg>
