<svg width="45" height="50" viewBox="0 0 45 50" fill="none" xmlns="http://www.w3.org/2000/svg">
<path d="M45 0L40.9004 44.9948L22.4725 50L4.09533 45.0018L0 0H45Z" fill="#E44D26"/>
<path d="M22.4994 46.1742L37.39 42.1297L40.8935 3.67955H22.4994V46.1742Z" fill="#F16529"/>
<path d="M14.5307 14.7182H22.5002V9.19892H8.37392L9.89341 25.8893H22.5002V20.3701H15.0455L14.5307 14.7182Z" fill="#EBEBEB"/>
<path d="M15.7996 28.649H10.1444L10.9337 37.3151L22.4735 40.4537L22.4994 40.4466V34.7042L22.4748 34.7107L16.2006 33.0509L15.7996 28.649Z" fill="#EBEBEB"/>
<path d="M22.4809 25.8894H29.418L28.7641 33.0474L22.4809 34.7089V40.4511L34.03 37.3152L35.4385 21.8522L35.5759 20.3701H22.4809V25.8894Z" fill="white"/>
<path d="M22.4809 14.7182H36.0886L36.593 9.19892H22.4809V14.7182Z" fill="white"/>
</svg>
