<svg width="59" height="59" viewBox="0 0 59 59" fill="none" xmlns="http://www.w3.org/2000/svg">
<g clip-path="url(#clip0_40_56)">
<path d="M21.9185 45.292C21.9185 45.292 19.7109 46.5759 23.4897 47.0103C28.0676 47.5325 30.4073 47.4577 35.4521 46.5028C35.4521 46.5028 36.7785 47.3345 38.6308 48.0548C27.3216 52.9018 13.0357 47.774 21.9185 45.292Z" fill="#5382A1"/>
<path d="M20.5367 38.9671C20.5367 38.9671 18.0606 40.8 21.8422 41.1911C26.7324 41.6956 30.5944 41.7368 37.277 40.4501C37.277 40.4501 38.2014 41.3871 39.6547 41.8996C25.9812 45.8979 10.7512 42.2149 20.5367 38.9671Z" fill="#5382A1"/>
<path d="M32.1868 28.2377C34.9734 31.446 31.4546 34.3331 31.4546 34.3331C31.4546 34.3331 38.5303 30.6803 35.2807 26.1064C32.2458 21.8408 29.9184 19.7215 42.5181 12.4141C42.5181 12.4141 22.7407 17.3535 32.1868 28.2377Z" fill="#E76F00"/>
<path d="M47.1441 49.9703C47.1441 49.9703 48.7778 51.3165 45.3449 52.3579C38.817 54.3354 18.1752 54.9325 12.441 52.4367C10.3797 51.5399 14.2452 50.2955 15.4611 50.0344C16.7293 49.7594 17.4539 49.8106 17.4539 49.8106C15.1616 48.1957 2.63697 52.9815 11.0921 54.3521C34.1504 58.0914 53.1251 52.6682 47.1441 49.9703Z" fill="#5382A1"/>
<path d="M22.9803 32.4135C22.9803 32.4135 12.4806 34.9074 19.2621 35.813C22.1255 36.1964 27.8335 36.1097 33.1505 35.6642C37.4957 35.2976 41.8589 34.5183 41.8589 34.5183C41.8589 34.5183 40.3267 35.1745 39.2182 35.9314C28.5559 38.7355 7.95827 37.431 13.8881 34.5627C18.9029 32.1386 22.9803 32.4135 22.9803 32.4135Z" fill="#5382A1"/>
<path d="M41.8153 42.9418C52.6541 37.3096 47.6427 31.897 44.1448 32.6263C43.2875 32.8047 42.9052 32.9593 42.9052 32.9593C42.9052 32.9593 43.2235 32.4607 43.8314 32.2449C50.7513 29.8121 56.0732 39.4202 41.5975 43.2256C41.5975 43.2256 41.7652 43.0758 41.8153 42.9418Z" fill="#5382A1"/>
<path d="M35.2806 0.614563C35.2806 0.614563 41.2833 6.61923 29.5873 15.8527C20.2084 23.2596 27.4486 27.4828 29.5834 32.308C24.1088 27.3685 20.0911 23.0203 22.7865 18.9733C26.7427 13.0328 37.7025 10.1527 35.2806 0.614563Z" fill="#E76F00"/>
<path d="M24.0453 58.2038C34.449 58.8698 50.4253 57.8342 50.8037 52.9115C50.8037 52.9115 50.0764 54.7777 42.2055 56.2597C33.3256 57.9308 22.3735 57.7357 15.8777 56.6648C15.8777 56.6648 17.2075 57.7653 24.0453 58.2038Z" fill="#5382A1"/>
</g>
<defs>
<clipPath id="clip0_40_56">
<rect width="59" height="59" fill="white"/>
</clipPath>
</defs>
</svg>
