<svg width="35" height="35" viewBox="0 0 35 35" fill="none" xmlns="http://www.w3.org/2000/svg">
<g clip-path="url(#clip0_41_121)">
<path fill-rule="evenodd" clip-rule="evenodd" d="M30.625 9.84375V30.625C30.625 31.7853 30.1641 32.8981 29.3436 33.7186C28.5231 34.5391 27.4103 35 26.25 35H24.0625V32.8125H26.25C26.8302 32.8125 27.3866 32.582 27.7968 32.1718C28.207 31.7616 28.4375 31.2052 28.4375 30.625V9.84375H24.0625C23.1923 9.84375 22.3577 9.49805 21.7423 8.88269C21.127 8.26734 20.7813 7.43274 20.7812 6.5625V2.1875H8.75C8.16984 2.1875 7.61344 2.41797 7.2032 2.8282C6.79297 3.23844 6.5625 3.79484 6.5625 4.375V24.0625H4.375V4.375C4.375 3.21468 4.83594 2.10188 5.65641 1.28141C6.47688 0.460936 7.58968 0 8.75 0L20.7812 0L30.625 9.84375ZM6.72656 32.4647C6.73909 32.8094 6.8236 33.1476 6.97467 33.4577C7.12574 33.7677 7.34003 34.0427 7.60375 34.265C7.88667 34.5012 8.23521 34.685 8.64937 34.8163C9.06354 34.949 9.54844 35.0153 10.1041 35.0153C10.8434 35.0153 11.4691 34.9001 11.9809 34.6697C12.4986 34.4393 12.8924 34.1184 13.1622 33.7072C13.438 33.2801 13.5805 32.7805 13.5712 32.2722C13.5712 31.7822 13.4728 31.3739 13.2759 31.0472C13.0758 30.7194 12.7929 30.45 12.4556 30.2663C12.0692 30.0516 11.6525 29.8967 11.2197 29.8069L9.86125 29.4919C9.54094 29.4312 9.23825 29.2996 8.97531 29.1069C8.87591 29.0297 8.79588 28.9304 8.74157 28.8168C8.68727 28.7033 8.6602 28.5786 8.6625 28.4528C8.6625 28.1116 8.79667 27.8316 9.065 27.6128C9.33917 27.3911 9.71323 27.2803 10.1872 27.2803C10.4993 27.2803 10.7691 27.3299 10.9966 27.4291C11.2063 27.5127 11.3909 27.6491 11.5325 27.825C11.6671 27.9874 11.7576 28.1818 11.795 28.3894H13.4356C13.408 27.9443 13.2573 27.5156 13.0003 27.1512C12.7247 26.7578 12.3463 26.4476 11.9066 26.2544C11.3697 26.0178 10.7867 25.9042 10.2003 25.9219C9.55865 25.9219 8.99281 26.0312 8.50281 26.25C8.01135 26.4673 7.62635 26.7743 7.34781 27.1709C7.07073 27.5691 6.93219 28.035 6.93219 28.5688C6.93219 29.0092 7.02188 29.3912 7.20125 29.715C7.38063 30.0387 7.63656 30.3064 7.96906 30.5178C8.30302 30.7264 8.69677 30.8817 9.15031 30.9837L10.5022 31.2987C10.9543 31.4052 11.2911 31.5459 11.5128 31.7209C11.6218 31.8042 11.7091 31.9124 11.7674 32.0366C11.8257 32.1607 11.8531 32.297 11.8475 32.4341C11.8524 32.6596 11.7875 32.8812 11.6616 33.0684C11.5206 33.2604 11.3268 33.4071 11.1038 33.4906C10.8602 33.5927 10.5591 33.6438 10.2003 33.6438C9.94365 33.6438 9.71031 33.6146 9.50031 33.5563C9.30639 33.5041 9.12287 33.419 8.95781 33.3047C8.81236 33.2102 8.68782 33.087 8.59187 32.9425C8.49593 32.798 8.43063 32.6354 8.4 32.4647H6.72656ZM0 32.3553C0 32.7155 0.0597917 33.0553 0.179375 33.3747C0.300417 33.6955 0.477604 33.9799 0.710937 34.2278C0.951562 34.4757 1.24833 34.6704 1.60125 34.8119C1.96 34.9475 2.3749 35.0153 2.84594 35.0153C3.76469 35.0153 4.48219 34.763 4.99844 34.2584C5.51906 33.7553 5.7801 33.0232 5.78156 32.0622V26.1013H4.05125V32.1059C4.05125 32.5464 3.95062 32.8861 3.74937 33.1253C3.54812 33.3645 3.24042 33.4841 2.82625 33.4841C2.62742 33.4932 2.42985 33.4479 2.25485 33.3531C2.07984 33.2583 1.93403 33.1175 1.83312 32.9459C1.73411 32.7644 1.6794 32.562 1.67344 32.3553H0ZM19.4841 26.1013H21.4375L18.6506 30.4916L21.3937 34.8469H19.4075L17.5481 31.7516H17.4716L15.6056 34.8469H13.7222L16.4347 30.4369L13.7484 26.0991H15.785L17.605 29.2447H17.6837L19.4841 26.0991V26.1013Z" fill="#BB3C3C"/>
</g>
<defs>
<clipPath id="clip0_41_121">
<rect width="35" height="35" fill="white"/>
</clipPath>
</defs>
</svg>
